<?xml version='1.0' encoding='utf-8'?>
<svg xmlns="http://www.w3.org/2000/svg" width="920px" height="658px" version="1.1" viewBox="79 734 920 658"> <g> <g fill="#fff"> <path d="m70.222 727.49c-0.17132 0-0.33557 0.0681-0.45666 0.1892-0.12116 0.1211-0.18915 0.2854-0.18915 0.45665l4.9e-4 669.74c0 0.3567 0.28906 0.6457 0.64581 0.6457l937.63 0.0027c0.1711 0 0.3354-0.0679 0.4565-0.1892 0.1211-0.1211 0.1891-0.2854 0.1891-0.4565l-5e-4 -669.74c0-0.3566-0.28905-0.6459-0.6456-0.6459l-937.63-1e-4z"/> </g> <g fill="#3d636c"> <path d="m308 847.44 60.132 25.007 60.132 25.008q-33.296 80.063-66.591 160.13-60.132-25.006-120.26-50.013 33.296-80.064 66.592-160.13"/> <path d="m297.96 852.73 125.74 52.292-67.596 162.54q-62.87-26.146-125.74-52.292 33.798-81.271 67.596-162.54"/> <path d="m291.65 909.85 3e-4 9.6e-4 1.2e-4 6.1e-4 -5.4e-4 -9.7e-4 1.2e-4 -2.5e-4c-0.21179 3.2408-2.6484 5.8984-5.8586 6.3902-3.21 0.4916-6.3304-1.3151-7.5026-4.3439l-1.2e-4 6.1e-4c-6.329-16.354-11.623-29.175-21.068-34.831-3.0498-1.8262-6.575-2.9016-9.8927-3.0405l-1.8e-4 6.4e-4c-6.12-0.25643-11.282 2.4408-12.77 10.591l-1.2e-4 1e-4c-2.9018 15.902 7.3423 48.535 18.896 84.491 1.1694 3.6392-0.83293 7.5373-4.4722 8.7068-3.6393 1.1692 2.2585 31.946-8.707-4.4725 10.018 31.258-1.2e-4 5e-4 -1.2e-4 5e-4 -10.838-33.815-23.034-70.937-19.334-91.211l1.2e-4 6.1e-4c2.908-15.938 15.006-22.438 26.966-21.938l-1.2e-4 6.1e-4c5.7562 0.24013 11.511 2.0515 16.426 4.9941l2.5e-4 6e-4c14.39 8.6163 21.145 26.928 26.866 41.71l-13.361 2.0464 1.2e-4 -5e-4c0.24934-3.8143 3.5438-6.7042 7.3584-6.4545 3.8143 0.24953 6.7042 3.5441 6.4546 7.3582l3e-4 9.6e-4 -3e-4 -9.6e-4z"/> </g> <g fill="#ffb995"> <path d="m173.7 909.09 4.7258 2.0911q36.355 16.281 44.532 17.892 7.4764 1.9022 12.506 1.7896 7.8082-0.37974 10.056-2.441 1.8041-0.8571 3.2727-4.7207 0.97473-2.1156 0.54016-10.742 2.422-0.56922 3.84-6.7982 0.96556-4.0392-2.0712-6.9829 4.3654-2.8513 5.2419-7.6646 0.7558-3.3031-1.5382-7.2737 1.4895 0.1633 2.6626-2.1423 1.4509-2.7267 1.448-5.385-0.04407-7.6728-12.679-13.477-5.2621-2.2725-11.086-2.4156-5.3768-0.06115-10.132 1.4541-7.8095 1.7796-17.232 12.528l-17.807-1.912-16.28 36.2z"/> </g> <g fill="#3d636c"> <path d="m371.67 962.22-1.3e-4 4.9e-4 81.487 4.6088q-1.5766 10.298-3.1531 20.596-49.578 1.1576-99.156 2.3153l20.822-27.521z"/> </g> <g> <path d="m439 1001.8h-2.5e-4v2.5e-4l2.5e-4 -2.5e-4z"/> </g> <g fill="#3d636c"> <path d="m446.64 972.67-0.41407 4.8698q-0.63587 15.436 4.0616 25.206 4.9151 10.129 13.039 8.0743 7.6477-2.7675 12.633-15.317 1.5336-3.8909 2.5886-8.3845l0.89978-4.5183q0.75904-4.5612 0.93946-9.4135 0.33898-14.216-3.7354-23.266-3.9206-8.709-10.465-9.2824-6.6568 0.06325-12.012 8.5542-5.642 8.9477-7.5346 23.477z"/> </g> <g fill="#fff"> <path d="m208.17 868.16-11.194-4.9902-11.194-4.9903q-11.269 25.277-22.538 50.555 11.194 4.9909 22.388 9.9816 11.269-25.278 22.538-50.556z"/> </g> <g fill="#3d4e52"> <path d="m468.67 960.99-0.1648 0.35449q-0.60083 1.0933-1.5697 1.4558-1.0654 0.39456-1.9908-0.33814-0.87634-0.792-0.89221-2.1455-0.01097-1.2932 0.818-2.3689 0.75733-0.8989 1.7119-1.0051 0.88489-0.09426 1.5948 0.57566 0.63879 0.66748 0.74963 1.6889 0.03589 0.3384 0.00537 0.69216l-0.04931 0.35914q-0.06787 0.36865-0.21289 0.73144z"/> <path d="m464.45 969.52-0.1648 0.35525q-0.26684 0.48557-0.60656 0.82736-0.16992 0.1709-0.35804 0.30544-0.08275 0.0901-0.6051 0.323-0.94717 0.3503-1.7835-0.1897-0.86682-0.6182-1.0499-1.721-0.18054-1.1745 0.30915-2.2009 0.25592-0.5332 0.63-0.9309 0.44147-0.41626 0.54125-0.45264 0.18775-0.12106 0.38526-0.20361 0.40522-0.16602 0.80912-0.17065 0.19232-0.0022 0.37602 0.0332 0.09706-0.0054 0.53163 0.1924 0.91747 0.5444 1.1672 1.6142 0.25183 1.1477-0.18177 2.2185z"/> <path d="m461.63 979.89-0.16437 0.355q-0.58172 1.0752-1.5703 1.4555-0.2102 0.07786-0.41522 0.1118-0.50774 0.0464-0.60266 0.0029-0.3935-0.06394-0.7652-0.3042-0.45221-0.3644-0.50188-0.46573-0.14192-0.17337-0.2505-0.37107-0.21643-0.3938-0.2978-0.8838-0.0802-0.522-0.02813-1.0154 0.02619-0.2461 0.08521-0.48535 0.17694-0.59105 0.25207-0.70019 0.52545-1.0884 1.4696-1.5491 0.97584-0.4265 1.8038 0.01634 0.4077 0.24219 0.68346 0.58836 0.13806 0.1726 0.2431 0.3711 0.23334 0.5198 0.2406 0.6548 0.05591 0.2551 0.07801 0.5066 0.03235 0.1277-0.00965 0.7451-0.05742 0.49147-0.25018 0.9673z"/> <path d="m463.63 988.88-0.16468 0.35498q-0.25855 0.47755-0.59729 0.81785-0.44128 0.39577-0.55352 0.4336-0.19962 0.11915-0.41941 0.20387-0.35308 0.15893-0.95533 0.12963-0.4022-0.05395-0.8278-0.3193-0.8376-0.6084-1.0303-1.6126-0.22106-1.1274 0.25104-2.2366 0.29095-0.59228 0.58813-0.91575 0.06617-0.10964 0.52069-0.47 0.18928-0.13354 0.39898-0.23583 0.53583-0.19897 0.63435-0.1875 0.20587-0.03027 0.40435-0.01782 0.3972 0.02515 0.76523 0.22195 0.85132 0.4858 1.1527 1.5354 0.06311 0.2768 0.10303 0.6665 0.00903 0.28196-0.02027 0.6643-0.03015 0.3833-0.24987 0.96727z"/> <path d="m470.02 993.39-0.1644 0.35546q-0.32545 0.56763-0.5973 0.81837-0.4109 0.36279-0.48743 0.39917-0.30469 0.177-0.5669 0.27126-0.89709 0.3044-1.7017-0.2229-0.4376-0.35525-0.48692-0.45-0.13831-0.16404-0.245-0.3479-0.21288-0.3684-0.29871-0.81516-0.04577-0.12549-0.07031-0.74924 0.00208-0.2488 0.03858-0.4971 0.07312-0.4968 0.28283-0.98975 0.33203-0.66185 0.6366-0.9768 0.50915-0.49561 0.87123-0.64455 0.99828-0.42625 1.8038 0.0164 0.11168 0.03684 0.50683 0.38694 0.1482 0.14941 0.26941 0.32641 0.24268 0.35545 0.37671 0.82205 0.1648 0.66745 0.08263 1.3305-0.0592 0.49216-0.25 0.9668z"/> <path d="m476.49 986.79-0.16478 0.35524q-0.39136 0.65676-0.59729 0.81836-0.36499 0.3225-0.46618 0.3867-0.30262 0.17555-0.5293 0.26125-0.48682 0.16845-0.83777 0.12865-0.19043-0.0144-0.3761-0.0698-0.46008-0.1746-0.54651-0.25905-0.84057-0.58815-1.0498-1.6936-0.1753-1.1446 0.27051-2.1558 0.29516-0.58815 0.56848-0.9026 0.55432-0.5515 0.85694-0.6814 0.56713-0.2456 0.93163-0.2446 0.4989 0.0156 0.58704 0.07004 0.17431 0.04932 0.39587 0.16553 0.823 0.48703 1.1245 1.5232 0.27968 1.218-0.16722 2.2978z"/> <path d="m479.01 975.92-0.16455 0.35474q-0.3479 0.584-0.54919 0.7766-0.38379 0.34034-0.51428 0.42897-0.26916 0.15573-0.47803 0.24123-0.50977 0.17966-0.80945 0.1545-0.43845-0.0061-0.94553-0.2932-0.45885-0.3247-0.67932-0.66723-0.08166-0.07471-0.30323-0.60257-0.07763-0.2202-0.1239-0.46555-0.07055-0.62985-0.04772-0.7478 0.00684-0.24485 0.04468-0.48265 0.07519-0.47585 0.27319-0.92555 0.23218-0.48609 0.56873-0.90259 0.64795-0.62476 0.85705-0.6814 0.66917-0.27099 0.93137-0.24463 0.4608 0.01907 0.5276 0.04761 0.21983 0.06496 0.45543 0.18826 0.10754 0.0371 0.49072 0.3857 0.14417 0.14894 0.2627 0.32497 0.23718 0.35203 0.37097 0.8125 0.12402 0.67043 0.10584 0.79638 0.0083 0.2605-0.01941 0.51395-0.05495 0.5078-0.25367 0.98776z"/> <path d="m475.49 967.01-0.16479 0.35525q-0.40808 0.66748-0.54933 0.77615-0.32494 0.29124-0.51415 0.4292-0.32165 0.1826-0.47802 0.2412-0.93811 0.3691-1.755-0.1389-0.51112-0.3704-0.72229-0.7227-0.33911-0.6416-0.36206-0.9045-0.21802-1.2264 0.24817-2.2637 0.16956-0.386 0.5686-0.9026 0.57616-0.5554 0.80518-0.66185 0.67273-0.27075 0.92016-0.26635 0.50452 0.02 0.57117 0.0432 0.18518 0.04785 0.50232 0.2063 0.79578 0.4878 1.0972 1.5117 0.27734 1.2461-0.16712 2.2976z"/> </g> <g fill="#97c8ff"> <path d="m498.96 984.94-1.2e-4 5e-4 1.2e-4 -5e-4c2.0018 0.44165 3.2668 2.4219 2.8257 4.4236-0.44092 2.0019-2.4214 3.2668-4.4232 2.8259l-1.3e-4 5e-4 1.3e-4 -5e-4c-2.002-0.44115-3.2671-2.4216-2.8259-4.4233 0.44128-2.002 2.4216-3.2669 4.4235-2.8262zm13.944 6.5508-1.4e-4 2e-4 1.4e-4 -2e-4c2.002 0.44065 3.2672 2.4209 2.826 4.4233-0.4413 2.0012-2.4218 3.2669-4.4235 2.8257l-2.3e-4 2.5e-4 2.3e-4 -2.5e-4c-2.0017-0.44165-3.2666-2.4216-2.8257-4.4231 0.44127-2.0022 2.4215-3.2678 4.4232-2.8259zm13.841 6.922v7e-4 -7e-4c2.0019 0.4414 3.267 2.4218 2.8258 4.4236-0.4414 2.0017-2.4217 3.2671-4.4233 2.8257l-1.4e-4 7.6e-4 1.4e-4 -7.6e-4c-2.0017-0.4414-3.2671-2.4214-2.826-4.4231 0.4414-2.002 2.4217-3.2671 4.4234-2.8262zm13.155 8.0193-1.4e-4 4.9e-4 1.4e-4 -4.9e-4c2.0017 0.44114 3.2667 2.4218 2.8256 4.4235-0.4413 2.0014-2.4216 3.2668-4.4233 2.8259l-1.2e-4 5e-4 1.2e-4 -5e-4c-2.0019-0.44164-3.2665-2.4216-2.8255-4.4233 0.4412-2.0022 2.4212-3.2671 4.4232-2.8261zm12.284 9.4126-2.5e-4 7.5e-4 2.5e-4 -7.5e-4c2.0018 0.44094 3.2668 2.4216 2.8258 4.4234-0.4413 2.0022-2.4216 3.2671-4.4236 2.8259v5e-4 -5e-4c-2.0016-0.4412-3.2667-2.4212-2.8254-4.4234 0.4409-2.0022 2.4214-3.2671 4.4232-2.826z"/> <path d="m494.05 995.44-1.2e-4 2.6e-4 1.2e-4 -2.6e-4c1.9481 0.63796 3.0101 2.7344 2.3724 4.6822-0.63795 1.948-2.7342 3.0102-4.6822 2.3723l-2.4e-4 5e-4 2.4e-4 -5e-4c-1.9481-0.63795-3.0102-2.7342-2.3724-4.6821 0.63778-1.9483 2.7341-3.0103 4.6822-2.3723zm13.225 7.9033v2.4e-4 -2.4e-4c1.9481 0.63744 3.0101 2.7336 2.3722 4.6819-0.6378 1.9484-2.734 3.0102-4.6824 2.3725v2.6e-4 -2.6e-4c-1.9478-0.63769-3.0099-2.7343-2.372-4.6823 0.6378-1.948 2.734-3.01 4.6822-2.3721zm13.085 8.2632v2.5e-4 -2.5e-4c1.948 0.6382 3.0101 2.7341 2.3724 4.6816-0.63803 1.9485-2.7344 3.0105-4.6824 2.373l-1.2e-4 5e-4 1.2e-4 -5e-4c-1.9482-0.63807-3.0103-2.7345-2.3726-4.6825 0.638-1.9479 2.7345-3.0101 4.6826-2.3722zm12.293 9.2861-1e-4 4.6e-4 1e-4 -4.6e-4c1.948 0.63796 3.01 2.7339 2.3723 4.6824-0.63793 1.948-2.7342 3.01-4.6822 2.3726-1.948-0.638-3.0102-2.7344-2.3722-4.6826 0.6379-1.9478 2.734-3.0098 4.6821-2.3723zm11.287 10.587h-1.2e-4 1.2e-4c1.948 0.6374 3.0104 2.7337 2.3727 4.6821-0.63782 1.9477-2.7344 3.01-4.6825 2.3723h-1.2e-4 1.2e-4c-1.9478-0.6379-3.0102-2.7341-2.3722-4.6826 0.6377-1.9483 2.7341-3.0098 4.682-2.3718z"/> <path d="m489.79 1006.6v2.7e-4 -2.7e-4c1.7408 1.083 2.274 3.3715 1.1913 5.1123-1.0826 1.7402-3.3714 2.2734-5.112 1.1905l-2.4e-4 3e-4 2.4e-4 -3e-4c-1.7408-1.0827-2.274-3.3712-1.1912-5.112 1.0826-1.7407 3.3716-2.2733 5.1119-1.1908zm10.967 10.821h-2.5e-4 2.5e-4c1.7404 1.0825 2.2736 3.3716 1.1908 5.1123-1.0826 1.7404-3.3714 2.2734-5.112 1.1909l-1e-4 2e-4 1e-4 -2e-4c-1.7405-1.0828-2.2739-3.3716-1.1909-5.1121 1.0826-1.7407 3.3714-2.2739 5.112-1.1911zm10.745 11.137-1.2e-4 7e-4 1.2e-4 -7e-4c1.7404 1.083 2.2737 3.3716 1.1909 5.1123-1.0828 1.7402-3.3715 2.2737-5.1119 1.1914h-2.3e-4 2.3e-4c-1.7406-1.0835-2.2739-3.3716-1.1912-5.1123 1.0828-1.7407 3.3716-2.2742 5.1122-1.1914zm9.7328 11.943-2.4e-4 5e-4 2.4e-4 -5e-4c1.7405 1.083 2.2737 3.3716 1.1909 5.1121-1.0826 1.7407-3.3713 2.2736-5.112 1.1909l-1.2e-4 7e-4 1.2e-4 -7e-4c-1.7407-1.0824-2.2738-3.3715-1.191-5.112 1.0827-1.7403 3.3715-2.2738 5.1121-1.191zm8.4468 12.967-2.4e-4 5e-4 2.4e-4 -5e-4c1.7405 1.0828 2.2736 3.3715 1.1909 5.1115-1.0828 1.741-3.3714 2.2744-5.112 1.1919h-1.3e-4 1.3e-4c-1.7404-1.0833-2.2736-3.3721-1.1909-5.1122 1.0828-1.741 3.3716-2.2739 5.112-1.1912z"/> </g> <g fill="#3d636c"> <path d="m297.49 853.87 123.96 51.553q-33.56 80.698-67.12 161.4-61.982-25.776-123.96-51.553 33.56-80.699 67.12-161.4"/> <path d="m255.21 855.38-1.3e-4 3.4e-4 -1.2e-4 4e-4 1.2e-4 -4e-4 1.3e-4 -3.4e-4 -1.3e-4 3.4e-4 -1.2e-4 4e-4q1.2e-4 -4e-4 2.5e-4 -7.4e-4"/> </g> <g fill="#fff"> <path d="m297.52 854.08 1.2e-4 3.6e-4q3.256-3.7792 6.5118-7.5588 61.161 25.939 122.32 51.878-1.4881 3.7145-2.9765 7.4293l-125.86-51.749"/> </g> <g> <path d="m307.61 848.34 0.41265-0.93421-5.4088-2.5679-6.6226 9.3441-66.357 161.37 8.432 3.2017 65.116-161.17 0.61703-0.8857-4.8095-2.1276 5.0617-7.9588 3.5588 1.7296"/> </g> <g fill="#929fa8"> <path d="m303.42 850.55v3.4e-4l1.3e-4 5e-4 -0.15864-0.1974 121.9 49.649c0.13352 0.05443 0.19766 0.20714 0.14334 0.34044-0.05444 0.1333-0.20674 0.19716-0.34006 0.14306v5e-4l-121.9-49.65c-0.08331-0.03404-0.14336-0.10874-0.15876-0.19724v4.8e-4l-1e-4 -0.00134c-0.02443-0.14184 0.0708-0.2771 0.2128-0.3015 0.14192-0.0247 0.27687 0.0708 0.30147 0.21276z"/> <path d="m302.71 851.99v3.4e-4 4e-4l-0.1582-0.1969 121.67 49.761c0.13335 0.0543 0.19738 0.20715 0.1427 0.3402-0.05446 0.13356-0.20686 0.19716-0.34022 0.14283v3.7e-4l-121.67-49.762c-0.08313-0.0344-0.14306-0.10864-0.15838-0.1974v5e-4l-1.3e-4 -0.0012c-0.02453-0.14187 0.07081-0.2769 0.21283-0.3013 0.1418-0.0245 0.27686 0.0708 0.3014 0.21266z"/> <path d="m302.24 853.36v3.5e-4 3.5e-4l-0.1579-0.1969 121.63 50.069c0.13324 0.0547 0.19677 0.2074 0.14177 0.3405-0.0548 0.1334-0.20732 0.1971-0.3405 0.1418v7.5e-4l-121.63-50.069c-0.08293-0.03406-0.14263-0.10866-0.15771-0.19702v4.6e-4l-2.4e-4 -0.0013c-0.02448-0.14174 0.07072-0.2769 0.21276-0.3013 0.14186-0.02465 0.27704 0.0708 0.30158 0.2128z"/> <path d="m304.05 849.05v5e-4l1.7e-4 4e-4 -0.15862-0.1973 121.76 49.605c0.13349 0.05454 0.19763 0.20679 0.14319 0.34009-0.0542 0.13355-0.20648 0.19785-0.3399 0.14331v4.9e-4l-121.76-49.605c-0.08349-0.03394-0.14343-0.1084-0.15875-0.19724v6e-4l-2.4e-4 -0.00124c-0.02442-0.14206 0.07092-0.27696 0.21282-0.30151 0.14194-0.02441 0.27702 0.0708 0.30143 0.21275z"/> </g> <g fill="#fff"> <path d="m433.52 939.85v3.5e-4 -3.5e-4"/> </g> <g fill="#3d636c"> <path d="m418.04 1010.4"/> </g> <g fill="#fff"> <path d="m522.81 754.24v1.5e-4 -1.5e-4 1.5e-4t0-1.5e-4"/> <path d="m304.48 918.64q0.01532 5e-3 0.03064 0.0112 3.1106 1.2323 1.2324 7.2857l0.0835 0.1929q-1.0248 3.1929-1.5315 4.4718-3.6316 9.1672-8.1393 7.6829-0.13171-0.04321-0.26416-0.09606l-0.51848-0.2052 0.09307-1.0427 0.34241-0.86377 2.0269-4.9154 1.4369-3.8289q3.6468-9.2066 5.2076-8.6924zm-10.148 21.77q2.5577 1.0132 3.0646 3.9727 0.1905 1.2353 0.06476 2.865-0.16021 1.616-0.46673 2.8938-0.2926 1.2439-0.79846 2.7226-0.52667 1.4309-0.75947 2.0183-0.23272 0.58764-0.51385 1.196l-0.04115 0.1035q-1.0815 2.7305-3.9336 4.4798-2.6621 1.6082-5.1379 0.79295-0.16393-0.05393-0.3272-0.1189l1.204-3.2414q1.0407-2.627 1.7567-3.2232 0.23065-1.1882 1.8462-5.2663 1.6018-4.0437 4.042-9.1948zm27.815-14.012q0.00336 1e-3 0.0066 0.00256l2.9722 1.1773q2.4884 0.98575 3.3129 3.9511 0.8244 2.9657-0.39418 6.0417l-0.27498 0.2908 0.05744 0.6627-5.8314 17.043q-1.1775 2.9722-2.96 6.6648-1.1174 2.3164-2.2989 4.0872-1.1677 1.7371-2.5292 3.3566-1.3478 1.5852-2.83 2.1978-1.3331 0.57664-2.6403 0.1462-0.11212-0.0371-0.22412-0.0813-1.3825-0.5476-1.8176-2.6794-0.40058-2.1181-0.04993-4.6181 0.88879-6.6853 3.5585-13.425l2.0798-5.6538 2.9744-6.499q0.41205-0.6365 3.3668-6.7834 2.9248-6.0785 3.522-5.882zm-19.003-11.043q-1.385-0.45603-2.0774 1.2921l-0.1643 0.41455 0.13964 0.4553q-0.4923 1.4444-1.5602 4.1403l-7.1233 16.771-2.3536 6.3449-6.6403 14.644q-0.60237 1.5208-0.82785 2.1909-0.22552 0.67041-0.02356 1.2705 0.18142 0.55151 0.80354 0.79785 0.33504 0.13306 0.66737 0.24243 2.8214 0.92897 5.4434 0.17897 5.5037-1.5786 8.187-8.3528l0.3971-1.0022 0.65656-1.8591q0.75879-2.2188 1.1675-3.8559 0.44324-1.624 0.40796-3.957-0.0147-2.2849-0.97265-3.9043 0.29595-0.24219 1.6048-1.1234 1.2603-0.86024 1.7969-1.4072l-0.06915-0.02733q2.3728-2.6588 4.0431-6.8755 1.6567-4.1819 2.0425-6.4683 0.37219-2.2515-0.11974-4.8455 0.0274-0.0692 0.15123-0.18005 0.22559-0.67042-2.1417-2.5676-2.3326-1.8839-3.3004-2.2676-0.06793-0.02664-0.13433-0.04871zm42.263 20.257q0.00324 0.00107 0.00664 0.00247l2.9722 1.1772q2.4885 0.98586 3.3128 3.9514 0.82452 2.9657-0.39398 6.0418l-0.27515 0.29076 0.05755 0.6626-5.8316 17.043q-1.1775 2.9721-2.9599 6.6642-1.1176 2.3167-2.299 4.0874-1.1678 1.7371-2.5292 3.3567-1.3478 1.5855-2.8298 2.1978-1.3333 0.5765-2.6405 0.14585-0.11212-0.03685-0.22417-0.08105-1.3825-0.5476-1.8177-2.6794-0.40045-2.118-0.0498-4.6182 0.8889-6.6853 3.5586-13.425l2.0798-5.6534 2.9742-6.499q0.41204-0.6365 3.3669-6.7832 2.9248-6.0791 3.5219-5.8822zm-21.882-11.944q-2.0838-0.68626-5.1839 4.1806-4.3125 6.8489-8.2965 16.906-10.323 26.06-2.0283 29.346 0.16198 0.0642 0.3242 0.11765 1.3963 0.45995 2.8176 0.1272 6.4843-1.43 12.796-17.363l3.2023-8.488 0.27502-0.29103q4.0526-10.231 3.0791-16.454-0.32756-3.0088-1.6487-3.812-0.51197-0.32274-1.7294-1.0847-1.1827-0.74854-1.8336-1.3262-0.63-0.5295-0.92876-1.0879-0.26404-0.54419-0.74786-0.73578-0.04822-0.01906-0.09698-0.03506zm23.26 9.2138q-2.084-0.68625-5.1842 4.1812-4.3123 6.8486-8.2964 16.906-10.323 26.06-2.0281 29.345 0.16199 0.0642 0.32422 0.11745 1.3962 0.45994 2.8174 0.1278 6.4842-1.43 12.796-17.363l3.2023-8.488 0.27514-0.2908q4.0525-10.23 3.0791-16.454-0.32756-3.009-1.6487-3.812-0.5119-0.3229-1.7295-1.0851-1.183-0.74865-1.8336-1.3262-0.63-0.52944-0.92871-1.0875-0.2641-0.5448-0.74799-0.7361-0.04821-0.0194-0.0968-0.0354zm21.209 9.201q-0.68603-0.22606-1.3445 0.38454l-3.8883 9.8156-6.113 13.413-4.1888 8.6567-5.2709 13.306q-0.35614 0.89868-0.13372 1.3467 0.2016 0.3996 0.85827 0.65986 0.09857 0.03905 0.19299 0.0703 0.53516 0.176 0.93964 0.0984 0.44147-0.105 0.59198-0.48536l1.118-4.235 3.587-9.0552 2.3582-4.9438q1.013-2.5576 3.022-4.6006 0.6468-0.62355 2.2574-2.0649 1.5622-1.4202 2.0095-1.8433l0.06341 0.34522q-0.86847 2.4951-1.9756 9.9333-1.0937 7.4046-1.2626 14.695-0.20362 7.2768 1.4554 7.9333 0.05804 0.02297 0.11474 0.042 1.1218 0.3694 1.6562-0.9797 0.3149-0.7952-0.3419-3.1741-0.94385-3.5727 0.19842-15.036 0.97598-9.5294 2.2493-12.744l1.9319-4.4726q5.7599-5.3557 12.757-10.101 0.36182-1.2163-1.4352-1.928-0.00147-7.5e-4 -3e-3 -0.00125-0.5075-0.16696-9.0843 7.3972-8.5555 7.567-9.3563 7.57 0.98583-2.4888 3.1092-7.4456 2.1235-4.9566 3.0545-7.3067 0.93103-2.3504 2.0049-3.2442 0.20527-0.5188-0.0451-1.0976-0.25056-0.5791-1.0109-0.8804-0.03803-0.0149-0.0763-0.0276z"/> </g> <g> <path d="m934 1316.3-2.393 0.4019q-17.017 1.2397-99.597 2.1753-83.151 0.9365-195.83 1.1004-107.54 0.0967-172.02-0.6494-20.66-0.2418-34.035-0.5555l-11.242-0.3299q-9.2646-0.3464-9.3698-0.7497 2.8089-1.2451 76.805-2.2637 73.996-1.0187 185.43-1.3462 111.44-0.2647 185.44 0.3608 74 0.6255 76.816 1.856"/> <path d="m69.576 791.38v87.365l72.549 25.882c18.878 8.345 30.865 13.653 31.377 13.907 0.70929-1.4268 1.4185-2.8536 2.1277-4.2804 0.58714-1.1817 1.1725-2.3594 1.7579-3.5373l-3.6835-1.6301 3.6835 1.6298c0.54565-1.0972 1.0911-2.1946 1.6366-3.2921 5.6177-11.302 11.235-22.604 16.852-33.905 0.5008-1.0076 1.0017-2.0154 1.5024-3.0231 0.96979-1.9509 1.9393-3.9017 2.909-5.8526l-3.3129-1.4772 3.313 1.4768c0.18042-0.36304 0.35651-0.71705 0.53278-1.0713l-27.572-13.705c-33.624-18.591-63.77-36.117-103.67-58.487z"/> <path d="m674.07 1006.3 1.5432 0.01q5.4208-0.02684 14.068 1.3594 4.2229 0.124 21.049 6.9198 12.961 6.1577 23.064 16.435 10.438 10.477 16.678 24.279 2.2856 3.1455 6.3109 20.44 1.1783 7.0108 1.1234 14.284 0.0229 15.043-5.4138 29.145-7.2729 16.422-9.9594 18.859-4.0902 5.7586-9.2072 10.81-23.275 23.09-58.224 24.186-16.258 0.0487-30.043-5.4183-16.482-7.3043-18.919-10.004-5.7685-4.1084-10.821-9.2476-10.438-10.49-16.68-24.274-3.0294-6.6113-4.8247-13.489-3.4097-17.425-2.6117-21.227-0.00476-15.063 5.3815-29.12 2.5456-6.811 6.1459-12.94 9.9214-14.722 13.171-16.845 23.707-23.183 58.171-24.161m-15.033-26.456-0.84485 0.0068q-70.569 5.3269-95.207 54.641-13.702 30.543-6.5933 42.768l-31.081 39.603q-7.0782 9.9593-7.3918 14.339-0.6938 3.8838 4.1596 7.4985 6.8841 5.0262 16.056 6.304 1.7159 0.8174 2.2859 2.6897 0.7364 0.4131-2.279 10.006-5.6609 8.0915-4.6847 8.4514-1.255 2.843 6.9904 9.1516 1.0476 0.2248-4.9377 6.9211-0.62546 0.8867-0.59973 2.0597 8.6165 10.844 7.874 13.744l-5.4387 19.547q-0.76429 5.1638 0.39892 7.5095 6.728 12.881 20.158 15.244l43.563 0.6278q2.781 2.5788 5.9088 12.063l1.7839 7.0206-2.5885 0.6434 2.7748 7.0187 152.82-0.3157q-6.6608-12.423-9.1838-19.164-4.795-29.088-4.5868-50.886 0.75549-8.8123 5.6811-17.501l22.994-35.996q5.617-12.979 8.8046-26.179 9.0548-33.898-2.9845-69.036-28.325-67.648-123.85-68.778z"/> </g> <g fill-opacity=".99608"> <path d="m765.58 1093.2-0.85791 13.16q-6.2109 39.777-36.696 63.681-30.696 23.884-72.37 19.468-39.777-6.2122-63.68-36.696-7.6594-9.8535-12.629-21.483l-4.1811-11.957q-3.4509-12.344-3.5172-25.77 0.9542-41.204 28.258-68.623 27.304-27.416 68.506-28.543 41.206 0.95424 68.623 28.258 27.418 27.304 28.543 68.505z"/> <path d="m551.97 1267.2 125.81-0.2596 125.81-0.2589q0.05164 24.949 0.10364 49.902-125.81 0.2589-251.61 0.5208-0.05139-24.952-0.10339-49.904z"/> <path d="m609.59 1229.3 138.32-2.4777q0.18667 10.409 0.3733 20.818-69.162 1.241-138.32 2.4814-0.1869-10.41-0.3738-20.821z"/> </g> <g fill="#ff1c00" fill-opacity=".99608"> <path d="m775.35 1092.3v0.0015h-3.6e-4l3.6e-4 -0.0015v0.0015-0.0015l-3.6e-4 0.0015q3.6e-4 -0.0015 3.6e-4 -0.0015z"/> </g> <g fill="#fff"> <path d="m595.57 1035.2 0.34656-0.4383q5.5637-9.0058 22.699-18.518 16.738-8.708 35.297-11.283 14.365-2.5143 36.322-0.277 25.104 3.702 38.051 9.9017 19.667 8.0749 27.033 31.362 10.962 44.261 0.35779 58.066-5.0149 5.8169-18.657 4.7586-4.9843-0.294-13.998-2.329-28.914-7.4984-34.804-8.3034-10.024-1.7282-16.039-1.4272-8.7774 0.2657-18.149 2.2731-1.6494 0.1076-33.437 8.2254-3.1454 0.7669-6.3074 1.2918-9.7865 1.4913-14.962-0.9564-5.0562-1.7937-8.5188-8.8497-3.1688-6.9021-4.0893-20.776-0.9397-24.939 8.8538-42.72z"/> </g> <g fill="#447149"> <path d="m675 947.55 0.5835 118.64c0.0038 0.7649-0.61374 1.3884-1.3791 1.3923-0.76551 0.0042-1.3889-0.6135-1.3926-1.3789v5e-4l-0.58362-118.64c-0.00391-0.76515 0.61366-1.3887 1.379-1.3928 0.76538-0.00316 1.3888 0.61404 1.3927 1.3794z"/> <path d="m678.52 975.86 5.9916-8.0151c0.45824-0.6128 1.3269-0.7383 1.9399-0.2798 0.6128 0.458 0.73843 1.3267 0.2802 1.9395v4.9e-4l-5.9916 8.0144c-0.45825 0.61305-1.3268 0.73855-1.9397 0.28052-0.6133-0.45847-0.7385-1.3272-0.2804-1.94z"/> <path d="m666.81 967.15v2.6e-4l-5.3305-4.2825c-0.59664-0.479-0.692-1.3516-0.2126-1.9485 0.4793-0.5964 1.3519-0.6914 1.9484-0.2124l5.3308 4.2819c0.59646 0.4797 0.6917 1.3518 0.2124 1.9485-0.47934 0.59693-1.3517 0.69177-1.9485 0.21277z"/> </g> <g fill="#5e9e66"> <path d="m679.82 1038.6v5e-4l5.9912-8.0156c0.45826-0.6126 1.3269-0.7383 1.9398-0.2801 0.61314 0.4585 0.73854 1.3267 0.28014 1.9397v5e-4l-5.9916 8.0144c-0.45823 0.6136-1.3265 0.7386-1.9394 0.2803-0.6132-0.458-0.73854-1.3266-0.2802-1.9397z"/> </g> <g fill="#447149"> <path d="m666.56 1036.4-5.3305-4.283c-0.5969-0.4787-0.692-1.3515-0.21276-1.9482 0.47956-0.5964 1.3518-0.6916 1.9484-0.2122v5e-4l5.3309 4.2814c0.59656 0.4795 0.6918 1.3518 0.2125 1.9487-0.4796 0.5966-1.3518 0.6918-1.9486 0.2128z"/> </g> <g fill="#ca6553"> <path d="m703.29 1060.5-54.167 0.5643 2.6647 14.215 2.2788 12.156q22.665-0.0592 45.33-0.1181l0.00305 4e-4q1.947-13.409 3.8943-26.818z"/> </g> <g fill="#a44f40"> <path d="m645.99 1050.3 30.201-0.0792 30.201-0.0785q0.01831 7.0676 0.03663 14.134-30.201 0.0782-60.401 0.1579-0.01819-7.0676-0.03674-14.134z"/> </g> <g fill="#df6445"> <path d="m699.59 1042v5e-4 -5e-4z"/> </g> <g fill="#a44f40"> <path d="m652.63 1086.6 48.02-0.1245q0.01004 3.8836 0.02005 7.7666-24.01 0.0631-48.02 0.1253-0.01013-3.8831-0.02038-7.7674z"/> </g> <g fill="#e60000"> <path d="m659.9 899.09c-7.1261 0.30356-12.664 6.3334-12.36 13.46 0.6172 14.498 15.403 17.677 25.979 31.585 8.8149-14.645 23.798-19.644 23.2-33.679-0.30334-7.1262-6.3332-12.664-13.46-12.361-5.1691 0.22046-9.4882 3.4619-11.362 7.9409-2.2483-4.3034-6.8273-7.1663-11.996-6.9463z"/> </g> <g fill="#82d78c"> <path d="m708.72 1009.9c1.1793 5.094-0.35434 10.871-4.5462 15.085-4.1918 4.2146-9.9611 5.7779-15.061 4.6246-1.1797-5.0937 0.3541-10.871 4.546-15.085 4.192-4.2141 9.961-5.778 15.061-4.6246z"/> </g> <g fill="#a0eb87"> <path d="m708.72 1009.9-19.607 19.709v5e-4c-1.1797-5.0942 0.3541-10.871 4.546-15.085 4.1924-4.2141 9.961-5.778 15.061-4.6246z"/> </g> <g fill="#82d78c"> <path d="m639.4 1010.3c-1.153 5.1003 0.41089 10.869 4.6246 15.062 4.214 4.1921 9.991 5.7253 15.085 4.5459 1.1532-5.1001-0.41086-10.869-4.6247-15.062-4.2138-4.1914-9.9908-5.7251-15.085-4.5459z"/> </g> <g fill="#a0eb87"> <path d="m639.4 1010.3 19.709 19.607c1.1532-5.1001-0.41086-10.869-4.6247-15.062-4.214-4.1914-9.9908-5.7251-15.085-4.5459v4.6e-4z"/> </g> <g fill="#82d78c"> <path d="m707.43 946.3c1.1799 5.0939-0.35413 10.871-4.546 15.085-4.1919 4.2141-9.9609 5.7779-15.061 4.6249-1.1798-5.094 0.35427-10.871 4.5462-15.085 4.1918-4.2143 9.9607-5.7779 15.061-4.6246z"/> </g> <g fill="#a0eb87"> <path d="m707.43 946.3-19.607 19.71c-1.1798-5.094 0.35427-10.871 4.5462-15.085 4.1918-4.2143 9.9607-5.7779 15.061-4.6246z"/> </g> <g fill="#82d78c"> <path d="m638.82 937.5c-1.1532 5.1001 0.41063 10.869 4.6244 15.061 4.2137 4.1916 9.9909 5.7253 15.085 4.5459 1.1533-5.1001-0.41074-10.869-4.6246-15.061-4.2137-4.1921-9.9907-5.7262-15.085-4.5462z"/> </g> <g fill="#a0eb87"> <path d="m638.82 937.5 19.709 19.607c1.1533-5.1001-0.41074-10.869-4.6246-15.061-4.2139-4.1921-9.9907-5.7262-15.085-4.5462z"/> </g> </g> </svg>